<svg width="30" height="29" viewBox="0 0 30 29" fill="none" xmlns="http://www.w3.org/2000/svg">
<path d="M7.18399 27.3105C5.88265 27.3105 4.79465 27.0865 3.91999 26.6385C3.06665 26.1905 2.42665 25.6145 1.99999 24.9105C1.57332 24.2065 1.35999 23.4811 1.35999 22.7345C1.35999 22.0731 1.51999 21.4545 1.83999 20.8785C2.13865 20.2811 2.58665 19.8011 3.18399 19.4385C3.80265 19.0545 4.54932 18.8625 5.42399 18.8625C5.65865 18.8625 5.81865 18.9051 5.90399 18.9905C5.98933 19.0545 6.03199 19.1291 6.03199 19.2145C6.03199 19.3425 5.90398 19.5345 5.64798 19.7905C5.39198 20.0251 5.12533 20.3665 4.84799 20.8145C4.59199 21.2625 4.46399 21.8811 4.46399 22.6705C4.46399 23.4811 4.71999 24.1851 5.23199 24.7825C5.74399 25.3585 6.46933 25.6465 7.40799 25.6465C7.98399 25.6465 8.51733 25.5291 9.00799 25.2945C9.51999 25.0385 9.92533 24.6011 10.224 23.9825C10.544 23.3425 10.704 22.4358 10.704 21.2625V8.14247C10.704 7.13981 10.5653 6.45713 10.288 6.09447C10.0106 5.71047 9.46665 5.40113 8.65599 5.16647L7.91999 4.97447L8.30399 3.88646H15.312L15.728 4.39847L15.312 4.97447C14.7786 5.67847 14.4053 6.42513 14.192 7.21447C13.9786 7.98247 13.872 9.01713 13.872 10.3185V19.3105C13.872 21.2305 13.584 22.7771 13.008 23.9505C12.4533 25.1239 11.6746 25.9771 10.672 26.5105C9.66933 27.0439 8.50665 27.3105 7.18399 27.3105Z" fill="#E3E6EB"/>
<g clip-path="url(#clip0_17_247)">
<path d="M16.5664 26.8624L16.1504 26.3504L16.5664 25.7744C17.0997 25.0704 17.473 24.3344 17.6864 23.5664C17.8997 22.777 18.0064 21.7318 18.0064 20.4304V8.14242C18.0064 7.13976 17.9317 6.48908 17.7824 6.19042C17.6544 5.87042 17.3664 5.71042 16.9184 5.71042H15.4784C14.7187 5.72182 14.1344 5.79576 13.6864 5.96642C13.2597 6.11576 12.9184 6.39308 12.6624 6.79842C12.4277 7.20376 12.2037 7.79042 11.9904 8.55842L11.7984 9.29442L10.7104 8.91042L10.668 3.89814L11.2266 3.88588L11.8281 3.87807C12.6562 3.88588 13.3907 3.87807 15.4464 3.88642H23.7344C25.569 3.88642 26.7851 3.66242 27.3824 3.21442L27.9584 2.79842L28.4704 3.21442V8.91042L27.3824 9.29442L27.1904 8.55842C26.9984 7.79042 26.7744 7.20376 26.5184 6.79842C26.2624 6.39308 25.921 6.11576 25.4944 5.96642C25.0677 5.79576 24.4703 5.71042 23.7024 5.71042H22.2624C21.8144 5.71042 21.5157 5.87042 21.3664 6.19042C21.2384 6.48908 21.1744 7.13976 21.1744 8.14242V22.6064C21.1744 23.5878 21.313 24.2704 21.5904 24.6544C21.889 25.0384 22.4331 25.3478 23.2224 25.5824L23.9584 25.7744L23.5744 26.8624H16.5664Z" fill="#E3E6EB"/>
</g>
<defs>
<clipPath id="clip0_17_247">
<rect width="20" height="26" fill="white" transform="translate(10 0.862442)"/>
</clipPath>
</defs>
</svg>

