<svg width="34" height="35" viewBox="0 0 34 35" fill="none" xmlns="http://www.w3.org/2000/svg">
<path d="M17 12.1958C16.2895 12.9554 15.9019 13.9614 15.9193 15.0014C15.9366 16.0414 16.3575 17.034 17.093 17.7695C17.8285 18.505 18.821 18.9259 19.861 18.9432C20.9011 18.9605 21.9071 18.573 22.6667 17.8624C22.6667 18.9832 22.3344 20.0788 21.7117 21.0107C21.089 21.9425 20.204 22.6689 19.1686 23.0978C18.1331 23.5267 16.9938 23.6389 15.8945 23.4202C14.7953 23.2016 13.7856 22.6619 12.9931 21.8694C12.2006 21.0769 11.6609 20.0672 11.4423 18.9679C11.2236 17.8687 11.3358 16.7293 11.7647 15.6939C12.1936 14.6584 12.9199 13.7734 13.8518 13.1508C14.7837 12.5281 15.8793 12.1958 17 12.1958Z" stroke="#919BA9" stroke-width="2.83333" stroke-linecap="round" stroke-linejoin="round"/>
<path d="M17 3.69577V6.5291" stroke="#919BA9" stroke-width="2.83333" stroke-linecap="round" stroke-linejoin="round"/>
<path d="M17 29.1958V32.0291" stroke="#919BA9" stroke-width="2.83333" stroke-linecap="round" stroke-linejoin="round"/>
<path d="M6.94165 7.80408L8.92498 9.78741" stroke="#919BA9" stroke-width="2.83333" stroke-linecap="round" stroke-linejoin="round"/>
<path d="M25.0751 25.9374L27.0584 27.9208" stroke="#919BA9" stroke-width="2.83333" stroke-linecap="round" stroke-linejoin="round"/>
<path d="M2.83337 17.8624H5.66671" stroke="#919BA9" stroke-width="2.83333" stroke-linecap="round" stroke-linejoin="round"/>
<path d="M28.3334 17.8624H31.1667" stroke="#919BA9" stroke-width="2.83333" stroke-linecap="round" stroke-linejoin="round"/>
<path d="M8.92498 25.9374L6.94165 27.9208" stroke="#919BA9" stroke-width="2.83333" stroke-linecap="round" stroke-linejoin="round"/>
<path d="M27.0584 7.80408L25.0751 9.78741" stroke="#919BA9" stroke-width="2.83333" stroke-linecap="round" stroke-linejoin="round"/>
</svg>
