<svg width="45" height="44" viewBox="0 0 45 44" fill="none" xmlns="http://www.w3.org/2000/svg">
<path d="M30.3078 5.42334C26.7559 0.896399 8.2303 -1.9312 0.987183 22.6954" stroke="#422AD5" stroke-width="0.903302" stroke-linecap="round"/>
<path d="M17.1254 1.28711C15.4824 3.88415 14.3617 10.3632 23.6898 14.7728C33.018 19.1825 40.5022 16.8208 42.9579 15.1248" stroke="#422AD5" stroke-width="0.903302" stroke-linecap="round"/>
<path d="M6.56641 7.60156C7.22082 12.3749 11.6362 22.3605 24.0624 24.1159C36.4885 25.8713 42.6362 22.5376 44.1567 20.6514" stroke="#422AD5" stroke-width="0.903302" stroke-linecap="round"/>
<path d="M1.18738 19.5723C2.22673 24.7306 8.41484 35.5482 24.5827 36.934C27.2774 37.1073 34.3412 36.6338 41.0393 33.354" stroke="#422AD5" stroke-width="0.903302" stroke-linecap="round"/>
<path d="M26.2289 0.861328C25.2186 1.13822 23.3285 2.41782 24.6473 5.69901C26.2957 9.80049 35.0591 13.6803 38.0761 9.27341C38.9504 7.9931 38.1577 7.06906 37.936 6.92217" stroke="#422AD5" stroke-width="0.903302" stroke-linecap="round"/>
<path d="M22.5833 0.820312C34.3384 0.820508 43.8673 10.3403 43.8674 22.082C43.8674 33.8239 34.3385 43.3436 22.5833 43.3438C10.8278 43.3438 1.2981 33.824 1.2981 22.082C1.29824 10.3402 10.8279 0.820312 22.5833 0.820312Z" stroke="#422AD5" stroke-width="0.903302"/>
<path d="M30.1702 5.28327C22.811 3.635 7.57725 7.30298 5.51575 35.1611" stroke="#422AD5" stroke-width="0.903302" stroke-linecap="round"/>
<path d="M30.3073 5.35352C24.7589 10.4376 14.6093 25.1467 18.398 43.3102" stroke="#422AD5" stroke-width="0.903302" stroke-linecap="round"/>
<path d="M30.3853 5.37695C32.7013 9.29875 35.742 22.3131 29.146 42.4717" stroke="#422AD5" stroke-width="0.903302" stroke-linecap="round"/>
<path d="M30.3969 5.36914C34.5502 5.89411 41.9487 13.5509 39.4321 35.6607" stroke="#422AD5" stroke-width="0.903302" stroke-linecap="round"/>
<path d="M30.4426 5.3697C31.0139 4.79842 33.0345 3.67187 33.6645 3.67187" stroke="#422AD5" stroke-width="0.903302" stroke-linecap="round"/>
<path d="M28.0804 1.24609C28.8216 2.28058 30.3316 4.58117 30.4428 5.50758" stroke="#422AD5" stroke-width="0.903302" stroke-linecap="round"/>
<path d="M30.5361 5.32115C31.4471 5.27483 34.3837 5.26413 36.7182 5.78292" stroke="#422AD5" stroke-width="0.903302" stroke-linecap="round"/>
</svg>
